<?xml version="1.0" encoding="UTF-8"?><svg id="Layer_1" xmlns="http://www.w3.org/2000/svg" viewBox="0 0 80.73 18"><defs><style>.cls-1{fill:#fff;fill-rule:evenodd;}</style></defs><path class="cls-1" d="m80.73,9.37v-3.54c-.33-.12-.7-.19-1.14-.19-1.19,0-2.22.51-2.94,1.42v-1.24h-3.66v11.66h4.01v-5.32c0-2.03,1-2.8,2.78-2.8h.96Zm-10.3,2.31c0-3.57-2.33-6.13-5.6-6.13-1.26,0-2.26.4-2.99,1.07V0h-4.01v17.49h3.66v-1.21c.72.98,1.84,1.49,3.34,1.49,3.27,0,5.6-2.52,5.6-6.09m-4.1-.02c0,1.63-1.1,2.47-2.29,2.47-1.12,0-2.26-.75-2.26-2.45s1.12-2.5,2.26-2.5,2.29.84,2.29,2.47m-15.79,5.83h4.01v-7.18c0-2.87-1.7-4.76-4.5-4.76-1.54,0-2.92.56-3.83,1.49-.77-.96-1.91-1.49-3.38-1.49-1.35,0-2.43.47-3.2,1.19v-.91h-3.66v11.66h4.01v-6.6c0-1.1.65-1.73,1.61-1.73s1.66.63,1.66,1.73v6.6h4.01v-6.6c0-1.1.65-1.73,1.61-1.73s1.66.63,1.66,1.73v6.6h0Zm-21.86,0h4.01v-7.18c0-2.87-1.7-4.76-4.5-4.76-1.54,0-2.92.56-3.83,1.49-.77-.96-1.91-1.49-3.38-1.49-1.35,0-2.43.47-3.2,1.19v-.91h-3.66v5.24l2.87,6.42h1.14v-6.6c0-1.1.65-1.73,1.61-1.73s1.66.63,1.66,1.73v6.6h4.01v-6.6c0-1.1.65-1.73,1.61-1.73s1.66.63,1.66,1.73v6.6Zm-14.52.51L7.72,3.59h-1.28L0,18h14.15Zm-5.73-3.23h-2.68l1.35-3.57,1.33,3.57Z"/></svg>